<?xml version="1.0" encoding="UTF-8" standalone="no"?>
<!DOCTYPE svg PUBLIC "-//W3C//DTD SVG 1.1//EN" "http://www.w3.org/Graphics/SVG/1.1/DTD/svg11.dtd">
<svg width="100%" height="100%" viewBox="0 0 2048 2048" version="1.1" xmlns="http://www.w3.org/2000/svg" xmlns:xlink="http://www.w3.org/1999/xlink" xml:space="preserve" xmlns:serif="http://www.serif.com/" style="fill-rule:evenodd;clip-rule:evenodd;stroke-linejoin:round;stroke-miterlimit:2;">
    <rect id="Icon-Software-Light" serif:id="Icon Software Light" x="0" y="0" width="2048" height="2048" style="fill:none;"/>
    <clipPath id="_clip1">
        <rect x="0" y="0" width="2048" height="2048"/>
    </clipPath>
    <g clip-path="url(#_clip1)">
        <g>
            <path d="M385.768,1497.547c-105.81,-80.049 -184.075,-177.873 -220.47,-237.848l0.618,-0.846c64.154,-85.101 126.809,-165.355 199.578,-242.601c-84.612,-123.635 -104.095,-291.707 -46.298,-469.585c1.691,-5.205 3.429,-10.378 5.209,-15.516c43.434,-125.368 112.285,-230.031 158.078,-283.178l0.996,0.327c100.76,34.716 196.448,69.505 292.4,114.842c91.438,-118.676 245.262,-189.142 432.295,-189.142c5.473,0 10.93,0.054 16.366,0.159c132.654,2.567 253.47,35.706 318.167,62.834l-0.003,1.048c-1.881,106.556 -5.398,208.311 -18.865,313.577c141.124,50.289 255.675,174.81 313.471,352.689c1.691,5.205 3.326,10.411 4.906,15.614c38.551,126.954 44.368,252.098 38.56,322.012l-0.998,0.321c-101.922,31.139 -199.784,59.238 -304.059,78.959c-4.218,149.757 -87.247,297.181 -238.559,407.116c-4.428,3.217 -8.874,6.381 -13.334,9.491c-108.828,75.895 -226.049,120.1 -294.336,136.18l-0.613,-0.85c-61.111,-87.311 -118.075,-171.7 -169.054,-264.778c-143.731,42.265 -309.596,8.857 -460.909,-101.078c-4.428,-3.217 -8.811,-6.468 -13.147,-9.748Zm46.21,-405.329c-37.485,58.827 -79.258,134.289 -90.514,180c13.113,33.694 51.311,88.299 121.612,139.375c16.919,12.292 34.49,22.967 52.444,31.904c110.736,55.115 236.063,44.076 312.975,-61.786c43.89,-60.409 43.71,-124.551 18.605,-208.293c-75.239,36.072 -152.149,45.827 -243.417,16.173c-67.35,-21.883 -124.872,-55.159 -171.704,-97.373Zm292.197,-642.372c-67.531,-17.472 -152.209,-33.881 -199.161,-30.461c-27.993,22.883 -68.121,76.086 -94.974,158.729c-6.462,19.889 -11.185,39.899 -14.136,59.736c-18.198,122.348 31.029,238.129 155.476,278.564c71.016,23.074 131.962,3.082 203.847,-46.672c-57.557,-60.41 -90.601,-130.541 -90.601,-226.506c0,-70.816 13.872,-135.805 39.548,-193.391Zm701.226,79.392c-4.252,-69.625 -14.812,-155.229 -32.574,-198.826c-30.413,-19.552 -93.413,-41.275 -180.309,-41.275c-20.913,0 -41.403,1.691 -61.18,5.015c-121.984,20.5 -216.886,103.096 -216.886,233.948c0,74.67 37.848,126.456 107.38,179.448c39.667,-73.408 96.154,-126.506 187.422,-156.161c67.35,-21.883 133.445,-28.773 196.146,-22.149Zm141.184,691.439c64.903,-25.559 143.054,-62.056 179.029,-92.42c9.196,-34.967 10.389,-101.596 -16.463,-184.238c-6.462,-19.889 -14.403,-38.854 -23.676,-56.636c-57.192,-109.678 -165.072,-174.412 -289.519,-133.977c-71.016,23.074 -108.571,75.072 -137.483,157.577c82.073,15.041 150.028,52.356 206.435,129.993c41.624,57.291 68.601,118.022 81.677,179.702Zm-613.969,347.941c44.364,53.829 103.225,116.876 143.22,141.707c36.097,-2.059 99.834,-21.514 170.134,-72.59c16.919,-12.292 32.501,-25.704 46.548,-40.018c86.637,-88.285 114.866,-210.889 37.953,-316.75c-43.89,-60.409 -104.948,-80.059 -192.349,-82.06c11.057,82.704 -3.432,158.864 -59.839,236.501c-41.624,57.291 -91.047,101.715 -145.667,133.211Z" style="fill:#00718d;"/>
            <path d="M393.653,987.044c-94.078,-118.31 -119.138,-289.61 -69.248,-455.893c43.434,-125.368 112.285,-230.031 158.078,-283.178l0.996,0.327c113.521,39.113 220.603,78.318 328.88,132.597c83.448,-126.033 238.62,-202.801 412.181,-206.737c132.654,2.567 253.47,35.706 318.167,62.834l-0.003,1.048c-2.119,120.052 -6.315,234.008 -24.477,353.758c145.651,40.417 266.613,164.272 323.99,328.122c38.551,126.954 44.368,252.098 38.56,322.012l-0.998,0.321c-114.83,35.083 -224.506,66.307 -344.008,86.038c6.57,151.012 -73.844,304.327 -211.945,409.528c-108.828,75.895 -226.049,120.1 -294.336,136.18l-0.613,-0.85c-68.85,-98.369 -132.437,-193.028 -188.131,-300.584c-141.591,52.913 -312.251,23.812 -454.979,-75.02c-105.81,-80.049 -184.075,-177.873 -220.47,-237.848l0.618,-0.846c72.279,-95.878 142.655,-185.605 227.736,-271.809Zm528.731,543.41c43.747,57.806 123.382,148.785 173.452,179.871c36.097,-2.059 99.834,-21.514 170.134,-72.59c16.919,-12.292 32.501,-25.704 46.548,-40.018c129.825,-105.823 161.683,-253.631 63.383,-388.93c-72.618,-99.95 -161.806,-111.275 -327.69,-94.982c38.386,117.731 43.357,223.665 -26.433,319.723c-28.788,39.623 -62.383,71.832 -99.393,96.927Zm81.562,-529.969c1.773,-0.206 3.554,-0.415 5.343,-0.625c11.055,-1.274 22.001,-2.468 32.832,-3.563c0.352,-1.75 0.704,-3.509 1.057,-5.275c2.205,-10.908 4.451,-21.687 6.757,-32.326c-1.556,-0.875 -3.119,-1.754 -4.69,-2.635c-9.692,-5.468 -19.25,-10.935 -28.656,-16.416c-1.313,1.209 -2.632,2.425 -3.955,3.647c-8.195,7.529 -16.348,14.929 -24.467,22.181c0.744,1.623 1.493,3.252 2.246,4.889c4.628,10.12 9.146,20.161 13.534,30.124Zm-109.874,42.103c-100.107,72.889 -199.32,110.351 -312.242,73.661c-46.579,-15.135 -87.594,-37.132 -122.897,-64.577c-41.458,59.469 -103.376,163.321 -117.468,220.546c13.113,33.694 51.311,88.299 121.612,139.375c16.919,12.292 34.49,22.967 52.444,31.904c140.762,90.77 291.18,75.393 389.481,-59.906c72.618,-99.95 55.828,-188.273 -10.929,-341.003Zm626.876,195.048c68.495,-23.743 179.63,-71.366 224.667,-109.379c9.196,-34.967 10.389,-101.596 -16.463,-184.238c-6.462,-19.889 -14.403,-38.854 -23.676,-56.636c-60.525,-156.172 -191.255,-232.146 -350.308,-180.467c-117.498,38.177 -155.83,119.501 -191.595,282.301c123.831,-0.127 226.116,27.881 295.906,123.939c28.788,39.623 49.039,81.527 61.469,124.481Zm-93.52,-659.753c-1.414,-72.48 -12.364,-192.892 -34.6,-247.471c-30.413,-19.552 -93.413,-41.275 -180.309,-41.275c-20.913,0 -41.403,1.691 -61.18,5.015c-167.232,9.303 -279.885,110.157 -279.885,277.396c0,123.544 65.498,185.131 209.278,269.453c38.145,-117.81 96.391,-206.434 209.313,-243.124c46.579,-15.135 92.691,-21.445 137.383,-19.994Zm-656.362,-114.932c-69.369,-21.052 -187.272,-47.848 -246.051,-43.566c-27.993,22.883 -68.121,76.086 -94.974,158.729c-6.462,19.889 -11.185,39.899 -14.136,59.736c-42.83,161.922 18.276,300.227 177.33,351.907c117.498,38.177 196.31,-5.084 320.936,-115.77c-100.256,-72.684 -166.544,-155.464 -166.544,-274.198c0,-48.976 8.247,-94.781 23.439,-136.838Z" style="fill:#002731;"/>
        </g>
    </g>
</svg>
